<?xml version="1.0" encoding="utf-8"?>
<!-- Generator: Adobe Illustrator 24.0.2, SVG Export Plug-In . SVG Version: 6.00 Build 0)  -->
<svg version="1.1" xmlns="http://www.w3.org/2000/svg" xmlns:xlink="http://www.w3.org/1999/xlink" x="0px" y="0px"
	 viewBox="0 0 24 24" style="enable-background:new 0 0 24 24;" xml:space="preserve">
<style type="text/css">
	.st0{fill:none;}
	.st1{display:none;}
	.st2{display:inline;}
	.st3{fill:none;stroke:#CECECE;stroke-width:0.1;stroke-miterlimit:10;}
	.st4{fill:#121331;}
</style>
<g id="bounding_box">
	<rect x="0" y="0" class="st0" width="24" height="24"/>
</g>
<g id="design">
	<path class="st4" d="M12,14.5c-0.41,0-0.75-0.34-0.75-0.75v-4C11.25,9.34,11.59,9,12,9s0.75,0.34,0.75,0.75v4
		C12.75,14.16,12.41,14.5,12,14.5z"/>
	<path class="st4" d="M12,18c-0.13,0-0.26-0.03-0.38-0.08c-0.13-0.05-0.23-0.12-0.33-0.21C11.1,17.52,11,17.27,11,17
		c0-0.26,0.11-0.52,0.29-0.71c0.37-0.37,1.04-0.37,1.42,0C12.89,16.48,13,16.74,13,17c0,0.27-0.1,0.52-0.29,0.71
		C12.52,17.9,12.27,18,12,18z"/>
	<path class="st4" d="M21.25,21H2.75c-0.26,0-0.51-0.14-0.64-0.36c-0.14-0.22-0.14-0.5-0.02-0.74l9.25-17.5
		c0.26-0.49,1.07-0.49,1.33,0l9.25,17.5c0.12,0.23,0.12,0.51-0.02,0.74C21.76,20.86,21.51,21,21.25,21z M4,19.5H20L12,4.35L4,19.5z"
		/>
</g>
</svg>
